<?xml version="1.0" encoding="UTF-8"?>
<svg width="560px" height="40px" viewBox="0 0 445 32" version="1.1" xmlns="http://www.w3.org/2000/svg" xmlns:xlink="http://www.w3.org/1999/xlink">
    <!-- Generator: Sketch 52.2 (67145) - http://www.bohemiancoding.com/sketch -->
    <title>DAAD-Logo-eng</title>
    <desc>Created with Sketch.</desc>
    <g id="Symbols" stroke="none" stroke-width="1" fill="none" fill-rule="evenodd">
        <g id="Logo/DAAD-eng" transform="translate(0.000000, -5.000000)" fill-rule="nonzero">
            <g id="DAAD-Logo-eng" transform="translate(0.000000, 5.000000)">
                <path d="M154.075,21.095 C153.914,20.113 153.123,19.44 151.688,19.44 C150.692,19.44 149.857,19.703 149.301,20.333 C148.378,21.358 148.173,22.735 148.173,23.731 C148.173,24.625 148.364,26.133 149.14,27.055 C149.828,27.847 150.897,28.096 151.952,28.096 C153.153,28.096 153.914,27.861 154.251,27.758 L154.251,24.625 L151.834,24.625 L151.834,23.409 L155.715,23.409 L155.715,28.623 C155.1,28.827 153.753,29.267 151.951,29.267 C150.003,29.267 148.861,28.71 148.114,27.949 C147.074,26.894 146.635,25.415 146.635,23.922 C146.635,22.867 146.899,20.378 148.905,19.03 C149.945,18.328 151.321,18.283 151.849,18.283 C152.684,18.283 153.958,18.386 154.968,19.411 C155.598,20.071 155.642,20.685 155.671,21.096 L154.075,21.096 L154.075,21.095 Z M158.909,25.605 C158.88,27.128 159.509,28.256 161.018,28.256 C161.911,28.256 162.629,27.788 162.746,26.733 L164.123,26.733 C164.079,27.1 164.02,27.7 163.493,28.271 C163.171,28.637 162.438,29.251 160.959,29.251 C158.645,29.251 157.547,27.817 157.547,25.488 C157.547,24.038 157.84,22.837 158.997,22.031 C159.7,21.533 160.579,21.49 161.003,21.49 C164.298,21.49 164.225,24.404 164.196,25.605 L158.909,25.605 Z M162.79,24.639 C162.805,23.936 162.673,22.472 160.974,22.472 C160.081,22.472 158.997,23.013 158.968,24.639 L162.79,24.639 Z M166.222,23.175 C166.222,22.677 166.193,22.164 166.149,21.68 L167.54,21.68 L167.569,23.102 C167.833,22.077 168.712,21.739 169.327,21.652 C169.737,21.593 170.044,21.607 170.279,21.622 L170.279,22.969 L170.015,22.91 L169.619,22.896 C167.993,22.896 167.613,23.862 167.613,25.122 L167.613,29.031 L166.222,29.031 L166.222,23.175 Z M171.634,22.661 L171.605,21.679 L172.996,21.679 L172.996,22.749 C173.699,21.592 174.695,21.489 175.324,21.489 C176.95,21.489 177.462,22.324 177.726,22.866 C177.975,22.455 178.575,21.489 180.201,21.489 C181.255,21.489 182.896,21.928 182.896,24.096 L182.896,29.031 L181.505,29.031 L181.505,24.316 C181.505,23.672 181.388,23.394 181.256,23.202 C181.022,22.866 180.553,22.558 179.85,22.558 C178.957,22.558 178.474,23.071 178.283,23.334 C177.961,23.788 177.961,24.594 177.961,24.916 L177.961,29.031 L176.57,29.031 L176.57,24.17 C176.57,23.262 176.043,22.558 174.959,22.558 C174.022,22.558 173.509,23.144 173.348,23.364 C173.04,23.789 173.026,24.389 173.026,24.857 L173.026,29.031 L171.635,29.031 L171.635,22.661 L171.634,22.661 Z M189.629,29.032 C189.526,28.666 189.497,28.315 189.497,27.934 C188.838,29.15 187.842,29.267 187.227,29.267 C185.543,29.267 184.635,28.315 184.635,27.1 C184.635,26.514 184.84,25.577 185.924,24.947 C186.715,24.507 187.886,24.463 188.472,24.463 C188.823,24.463 189.043,24.477 189.468,24.507 C189.468,23.6 189.468,23.203 189.205,22.881 C188.927,22.515 188.326,22.399 187.931,22.399 C186.54,22.399 186.467,23.351 186.452,23.644 L185.075,23.644 C185.119,23.263 185.163,22.751 185.588,22.253 C186.144,21.637 187.184,21.461 187.961,21.461 C189.03,21.461 190.172,21.799 190.568,22.545 C190.802,22.984 190.817,23.335 190.817,23.673 L190.758,27.187 C190.758,27.304 190.773,28.285 190.875,29.032 L189.629,29.032 Z M188.677,25.415 C188.12,25.415 186.026,25.415 186.026,26.908 C186.026,27.376 186.319,28.182 187.549,28.182 C188.252,28.182 188.779,27.904 189.116,27.392 C189.423,26.894 189.438,26.484 189.467,25.458 C189.219,25.429 189.014,25.415 188.677,25.415 Z M193.178,22.529 L193.163,21.68 L194.54,21.68 L194.554,22.867 C194.715,22.559 195.242,21.534 196.912,21.534 C197.571,21.534 199.578,21.783 199.578,24.039 L199.578,29.033 L198.172,29.033 L198.172,24.36 C198.172,23.876 198.114,23.437 197.777,23.101 C197.425,22.764 196.942,22.602 196.473,22.602 C195.477,22.602 194.554,23.321 194.554,24.8 L194.554,29.031 L193.178,29.031 L193.178,22.529 Z M210.704,18.458 L212.271,18.458 L216.547,29.032 L214.951,29.032 L213.809,26.279 L208.903,26.279 L207.76,29.032 L206.252,29.032 L210.704,18.458 Z M209.372,25.093 L213.37,25.093 L211.422,19.908 L209.372,25.093 Z M222.541,24.038 C222.512,23.702 222.409,22.501 221.076,22.501 C219.172,22.501 219.172,24.712 219.172,25.269 C219.172,26.776 219.538,28.183 221.003,28.183 C222.174,28.183 222.57,27.304 222.6,26.587 L223.992,26.587 C223.904,28.023 222.835,29.224 221.018,29.224 C220.52,29.224 219.378,29.121 218.602,28.272 C218.163,27.759 217.723,26.982 217.723,25.459 C217.723,22.399 219.598,21.491 221.062,21.491 C221.545,21.491 222.644,21.594 223.319,22.399 C223.861,23.028 223.905,23.628 223.934,24.039 L222.541,24.039 L222.541,24.038 Z M230.75,29.032 C230.647,28.666 230.619,28.315 230.619,27.934 C229.96,29.15 228.964,29.267 228.349,29.267 C226.665,29.267 225.757,28.315 225.757,27.1 C225.757,26.514 225.962,25.577 227.046,24.947 C227.836,24.507 229.008,24.463 229.594,24.463 C229.946,24.463 230.165,24.477 230.59,24.507 C230.59,23.6 230.59,23.203 230.326,22.881 C230.048,22.515 229.448,22.399 229.052,22.399 C227.661,22.399 227.587,23.351 227.573,23.644 L226.196,23.644 C226.24,23.263 226.284,22.751 226.709,22.253 C227.265,21.637 228.305,21.461 229.081,21.461 C230.15,21.461 231.292,21.799 231.687,22.545 C231.922,22.984 231.936,23.335 231.936,23.673 L231.878,27.187 C231.878,27.304 231.893,28.285 231.995,29.032 L230.75,29.032 Z M229.798,25.415 C229.242,25.415 227.148,25.415 227.148,26.908 C227.148,27.376 227.44,28.182 228.671,28.182 C229.373,28.182 229.901,27.904 230.238,27.392 C230.546,26.894 230.561,26.484 230.59,25.458 C230.34,25.429 230.135,25.415 229.798,25.415 Z M239.651,18.474 L241.028,18.474 L241.028,27.861 C241.028,28.023 241.058,28.651 241.086,29.032 L239.709,29.032 L239.68,27.861 C239.563,28.066 239.402,28.374 239.02,28.637 C238.42,29.048 237.702,29.178 237.205,29.178 C236.223,29.178 234.042,28.666 234.042,25.444 C234.042,22.647 235.638,21.431 237.366,21.431 C238.947,21.431 239.475,22.369 239.65,22.677 L239.65,18.474 L239.651,18.474 Z M239.138,23.203 C238.846,22.823 238.303,22.456 237.527,22.456 C235.506,22.456 235.506,24.901 235.506,25.401 C235.506,26.703 235.843,28.212 237.527,28.212 C239.695,28.212 239.695,25.826 239.695,25.253 C239.695,24.184 239.445,23.599 239.138,23.203 Z M244.335,25.605 C244.305,27.128 244.935,28.256 246.444,28.256 C247.338,28.256 248.055,27.788 248.172,26.733 L249.549,26.733 C249.505,27.1 249.446,27.7 248.919,28.271 C248.597,28.637 247.865,29.251 246.386,29.251 C244.072,29.251 242.974,27.817 242.974,25.488 C242.974,24.038 243.267,22.837 244.424,22.031 C245.127,21.533 246.005,21.49 246.43,21.49 C249.726,21.49 249.652,24.404 249.623,25.605 L244.335,25.605 Z M248.216,24.639 C248.23,23.936 248.099,22.472 246.4,22.472 C245.506,22.472 244.423,23.013 244.393,24.639 L248.216,24.639 Z M251.405,22.661 L251.375,21.679 L252.766,21.679 L252.766,22.749 C253.469,21.592 254.465,21.489 255.095,21.489 C256.721,21.489 257.233,22.324 257.497,22.866 C257.746,22.455 258.346,21.489 259.972,21.489 C261.026,21.489 262.666,21.928 262.666,24.096 L262.666,29.031 L261.275,29.031 L261.275,24.316 C261.275,23.672 261.158,23.394 261.026,23.202 C260.792,22.866 260.323,22.558 259.621,22.558 C258.727,22.558 258.244,23.071 258.054,23.334 C257.732,23.788 257.732,24.594 257.732,24.916 L257.732,29.031 L256.341,29.031 L256.341,24.17 C256.341,23.262 255.814,22.558 254.73,22.558 C253.793,22.558 253.28,23.144 253.119,23.364 C252.812,23.789 252.797,24.389 252.797,24.857 L252.797,29.031 L251.406,29.031 L251.406,22.661 L251.405,22.661 Z M264.728,18.488 L266.383,18.488 L266.383,19.997 L264.728,19.997 L264.728,18.488 Z M264.875,21.68 L266.252,21.68 L266.252,29.032 L264.875,29.032 L264.875,21.68 Z M273.037,24.038 C273.007,23.702 272.905,22.501 271.572,22.501 C269.668,22.501 269.668,24.712 269.668,25.269 C269.668,26.776 270.034,28.183 271.499,28.183 C272.67,28.183 273.066,27.304 273.095,26.587 L274.486,26.587 C274.398,28.023 273.329,29.224 271.513,29.224 C271.014,29.224 269.873,29.121 269.096,28.272 C268.657,27.759 268.217,26.982 268.217,25.459 C268.217,22.399 270.092,21.491 271.556,21.491 C272.039,21.491 273.138,21.594 273.812,22.399 C274.353,23.028 274.398,23.628 274.427,24.039 L273.037,24.039 L273.037,24.038 Z M282.137,18.458 L288.771,18.458 L288.771,19.703 L283.602,19.703 L283.602,22.999 L288.522,22.999 L288.522,24.228 L283.602,24.228 L283.602,27.744 L288.889,27.744 L288.889,29.032 L282.138,29.032 L282.138,18.458 L282.137,18.458 Z M297.714,29.032 L295.898,29.032 L293.804,26.089 L291.724,29.032 L290.113,29.032 L293.027,25.18 L290.274,21.68 L292.075,21.68 L294.037,24.449 L296.087,21.68 L297.713,21.68 L294.842,25.269 L297.714,29.032 Z M303.477,24.038 C303.447,23.702 303.345,22.501 302.012,22.501 C300.108,22.501 300.108,24.712 300.108,25.269 C300.108,26.776 300.474,28.183 301.939,28.183 C303.11,28.183 303.506,27.304 303.535,26.587 L304.927,26.587 C304.839,28.023 303.77,29.224 301.954,29.224 C301.455,29.224 300.314,29.121 299.537,28.272 C299.098,27.759 298.658,26.982 298.658,25.459 C298.658,22.399 300.533,21.491 301.997,21.491 C302.48,21.491 303.579,21.594 304.253,22.399 C304.794,23.028 304.839,23.628 304.868,24.039 L303.477,24.039 L303.477,24.038 Z M307.094,18.474 L308.485,18.474 L308.485,22.764 C308.939,21.988 309.847,21.549 310.872,21.549 C311.648,21.549 312.761,21.827 313.185,22.72 C313.332,23.013 313.434,23.364 313.434,24.433 L313.434,29.031 L312.028,29.031 L312.028,24.681 C312.028,24.023 312.028,22.601 310.447,22.601 C309.422,22.601 308.909,23.231 308.719,23.583 C308.485,23.994 308.485,24.681 308.485,25.136 L308.485,29.031 L307.094,29.031 L307.094,18.474 Z M320.57,29.032 C320.467,28.666 320.439,28.315 320.439,27.934 C319.78,29.15 318.784,29.267 318.169,29.267 C316.485,29.267 315.577,28.315 315.577,27.1 C315.577,26.514 315.782,25.577 316.866,24.947 C317.656,24.507 318.828,24.463 319.414,24.463 C319.766,24.463 319.985,24.477 320.41,24.507 C320.41,23.6 320.41,23.203 320.146,22.881 C319.868,22.515 319.268,22.399 318.872,22.399 C317.481,22.399 317.407,23.351 317.393,23.644 L316.016,23.644 C316.06,23.263 316.104,22.751 316.529,22.253 C317.085,21.637 318.125,21.461 318.901,21.461 C319.97,21.461 321.112,21.799 321.507,22.545 C321.742,22.984 321.756,23.335 321.756,23.673 L321.698,27.187 C321.698,27.304 321.713,28.285 321.815,29.032 L320.57,29.032 Z M319.618,25.415 C319.062,25.415 316.968,25.415 316.968,26.908 C316.968,27.376 317.26,28.182 318.491,28.182 C319.193,28.182 319.721,27.904 320.058,27.392 C320.366,26.894 320.381,26.484 320.41,25.458 C320.16,25.429 319.955,25.415 319.618,25.415 Z M324.118,22.529 L324.104,21.68 L325.48,21.68 L325.495,22.867 C325.656,22.559 326.183,21.534 327.853,21.534 C328.512,21.534 330.518,21.783 330.518,24.039 L330.518,29.033 L329.112,29.033 L329.112,24.36 C329.112,23.876 329.053,23.437 328.716,23.101 C328.365,22.764 327.881,22.602 327.413,22.602 C326.417,22.602 325.494,23.321 325.494,24.8 L325.494,29.031 L324.117,29.031 L324.117,22.529 L324.118,22.529 Z M334.293,29.603 C334.352,30.424 334.704,31.039 336.007,31.039 C337.926,31.039 337.955,29.648 337.955,27.656 C337.369,28.872 335.978,28.902 335.539,28.902 C334.865,28.902 333.899,28.754 333.283,27.994 C332.654,27.247 332.448,26.266 332.448,25.284 C332.448,22.795 333.913,21.579 335.714,21.579 C337.193,21.579 337.735,22.312 338.028,22.693 L338.042,21.682 L339.375,21.682 L339.345,23.015 L339.33,27.613 C339.33,29.385 339.272,30.102 338.978,30.659 C338.363,31.83 336.928,31.977 335.917,31.977 C332.974,31.977 332.886,30.602 332.827,29.605 L334.293,29.605 L334.293,29.603 Z M337.5,27.143 C337.792,26.762 337.998,26.367 337.998,25.034 C337.998,24.111 337.793,23.584 337.427,23.203 C337.061,22.808 336.475,22.559 335.845,22.559 C334.103,22.559 333.868,24.317 333.868,25.253 C333.868,26.381 334.205,27.876 335.889,27.876 C336.695,27.876 337.164,27.582 337.5,27.143 Z M342.71,25.605 C342.68,27.128 343.31,28.256 344.819,28.256 C345.713,28.256 346.43,27.788 346.547,26.733 L347.924,26.733 C347.88,27.1 347.821,27.7 347.294,28.271 C346.972,28.637 346.24,29.251 344.761,29.251 C342.447,29.251 341.349,27.817 341.349,25.488 C341.349,24.038 341.642,22.837 342.799,22.031 C343.502,21.533 344.38,21.49 344.805,21.49 C348.101,21.49 348.027,24.404 347.998,25.605 L342.71,25.605 Z M346.592,24.639 C346.606,23.936 346.475,22.472 344.776,22.472 C343.882,22.472 342.799,23.013 342.769,24.639 L346.592,24.639 Z M356.195,25.942 C356.224,26.675 356.312,28.036 358.743,28.036 C360.94,28.036 361.218,26.675 361.218,26.147 C361.218,24.96 360.266,24.727 358.787,24.36 C357.176,23.965 356.458,23.789 355.917,23.423 C355.053,22.837 354.819,22.046 354.819,21.343 C354.819,19.19 356.855,18.252 358.846,18.252 C359.549,18.252 360.969,18.37 361.82,19.293 C362.406,19.937 362.435,20.654 362.464,21.094 L360.941,21.094 C360.868,19.776 359.755,19.482 358.715,19.482 C357.25,19.482 356.371,20.142 356.371,21.196 C356.371,22.133 356.986,22.455 358.275,22.763 C360.794,23.407 361.072,23.466 361.687,23.875 C362.669,24.52 362.742,25.546 362.742,25.984 C362.742,27.859 361.277,29.279 358.568,29.279 C357.762,29.279 356.122,29.148 355.287,28.078 C354.687,27.302 354.672,26.452 354.672,25.94 L356.195,25.94 L356.195,25.942 Z M365.727,25.605 C365.697,27.128 366.327,28.256 367.836,28.256 C368.73,28.256 369.447,27.788 369.564,26.733 L370.941,26.733 C370.897,27.1 370.838,27.7 370.311,28.271 C369.989,28.637 369.257,29.251 367.778,29.251 C365.464,29.251 364.366,27.817 364.366,25.488 C364.366,24.038 364.659,22.837 365.816,22.031 C366.519,21.533 367.397,21.49 367.822,21.49 C371.118,21.49 371.044,24.404 371.015,25.605 L365.727,25.605 Z M369.608,24.639 C369.622,23.936 369.491,22.472 367.792,22.472 C366.898,22.472 365.815,23.013 365.785,24.639 L369.608,24.639 Z M372.836,23.175 C372.836,22.677 372.806,22.164 372.763,21.68 L374.154,21.68 L374.183,23.102 C374.447,22.077 375.326,21.739 375.941,21.652 C376.351,21.593 376.658,21.607 376.892,21.622 L376.892,22.969 L376.629,22.91 L376.233,22.896 C374.607,22.896 374.227,23.862 374.227,25.122 L374.227,29.031 L372.836,29.031 L372.836,23.175 Z M377.692,21.68 L379.23,21.68 L381.573,27.509 L383.858,21.68 L385.381,21.68 L382.159,29.032 L380.767,29.032 L377.692,21.68 Z M386.799,18.488 L388.454,18.488 L388.454,19.997 L386.799,19.997 L386.799,18.488 Z M386.945,21.68 L388.322,21.68 L388.322,29.032 L386.945,29.032 L386.945,21.68 Z M395.108,24.038 C395.078,23.702 394.976,22.501 393.643,22.501 C391.739,22.501 391.739,24.712 391.739,25.269 C391.739,26.776 392.105,28.183 393.57,28.183 C394.741,28.183 395.137,27.304 395.166,26.587 L396.557,26.587 C396.469,28.023 395.4,29.224 393.584,29.224 C393.085,29.224 391.944,29.121 391.167,28.272 C390.728,27.759 390.288,26.982 390.288,25.459 C390.288,22.399 392.163,21.491 393.627,21.491 C394.11,21.491 395.209,21.594 395.883,22.399 C396.424,23.028 396.469,23.628 396.498,24.039 L395.108,24.039 L395.108,24.038 Z M399.45,25.605 C399.42,27.128 400.05,28.256 401.559,28.256 C402.453,28.256 403.17,27.788 403.287,26.733 L404.664,26.733 C404.62,27.1 404.561,27.7 404.034,28.271 C403.712,28.637 402.98,29.251 401.501,29.251 C399.187,29.251 398.089,27.817 398.089,25.488 C398.089,24.038 398.382,22.837 399.539,22.031 C400.242,21.533 401.12,21.49 401.545,21.49 C404.841,21.49 404.767,24.404 404.738,25.605 L399.45,25.605 Z M403.331,24.639 C403.345,23.936 403.214,22.472 401.515,22.472 C400.621,22.472 399.538,23.013 399.508,24.639 L403.331,24.639 Z M147.115,0.001 L150.176,0.001 C151.597,0.001 153.266,0.001 154.438,1.378 C155.375,2.476 155.741,3.926 155.741,5.376 C155.741,7.66 154.789,9.066 153.984,9.711 C152.944,10.575 151.641,10.575 150.088,10.575 L147.115,10.575 L147.115,0.001 Z M148.579,9.374 L150.014,9.374 C151.024,9.374 152.079,9.316 152.782,8.788 C154.129,7.778 154.173,6.049 154.173,5.434 C154.173,5.039 154.144,3.237 153.148,2.139 C152.474,1.392 151.625,1.217 150.336,1.217 L148.578,1.217 L148.578,9.374 L148.579,9.374 Z M158.823,7.148 C158.794,8.671 159.423,9.799 160.932,9.799 C161.825,9.799 162.543,9.33 162.66,8.276 L164.037,8.276 C163.993,8.642 163.934,9.242 163.407,9.814 C163.085,10.18 162.352,10.795 160.873,10.795 C158.559,10.795 157.461,9.36 157.461,7.031 C157.461,5.581 157.754,4.38 158.911,3.575 C159.614,3.077 160.493,3.033 160.917,3.033 C164.212,3.033 164.139,5.947 164.11,7.148 L158.823,7.148 Z M162.704,6.181 C162.719,5.478 162.587,4.014 160.888,4.014 C159.995,4.014 158.911,4.556 158.882,6.181 L162.704,6.181 Z M167.395,3.223 L167.395,7.953 C167.395,8.671 167.556,9.578 168.962,9.578 C169.65,9.578 170.295,9.344 170.69,8.758 C170.998,8.319 170.998,7.747 170.998,7.381 L170.998,3.222 L172.418,3.222 L172.418,9.197 C172.418,9.344 172.448,10.164 172.462,10.574 L171.027,10.574 L170.998,9.315 C170.734,9.828 170.237,10.647 168.655,10.647 C166.839,10.647 165.989,9.607 165.989,8.158 L165.989,3.223 L167.395,3.223 Z M174.165,3.194 L175.469,3.194 L175.469,1.656 L176.831,1.217 L176.831,3.194 L178.471,3.194 L178.471,4.205 L176.831,4.205 L176.831,8.613 C176.831,8.979 176.831,9.594 177.812,9.594 C178.09,9.594 178.354,9.55 178.471,9.521 L178.471,10.59 C178.222,10.634 177.827,10.678 177.329,10.678 C176.07,10.678 175.469,10.312 175.469,9.111 L175.469,4.205 L174.165,4.205 L174.165,3.194 Z M181.553,8.392 C181.539,8.949 181.831,9.725 183.164,9.725 C183.735,9.725 184.16,9.622 184.453,9.256 C184.6,9.065 184.687,8.817 184.687,8.568 C184.687,7.851 184.174,7.719 183.076,7.47 C181.539,7.118 180.25,6.811 180.25,5.273 C180.25,3.926 181.421,3.047 183.12,3.047 C184.043,3.047 185.331,3.311 185.771,4.189 C185.962,4.599 185.962,4.95 185.962,5.258 L184.556,5.258 C184.6,4.145 183.633,4.057 183.135,4.057 C182.93,4.057 181.641,4.057 181.641,5.111 C181.641,5.785 182.3,5.946 182.681,6.048 C184.717,6.531 185.156,6.648 185.595,7.059 C186.005,7.44 186.151,7.952 186.151,8.421 C186.151,9.241 185.697,9.944 185.155,10.281 C184.511,10.676 183.734,10.779 182.973,10.779 C181.479,10.779 180.088,10.164 180.103,8.392 L181.553,8.392 Z M192.772,5.581 C192.743,5.244 192.64,4.043 191.308,4.043 C189.404,4.043 189.404,6.254 189.404,6.811 C189.404,8.32 189.77,9.725 191.235,9.725 C192.406,9.725 192.802,8.846 192.831,8.129 L194.222,8.129 C194.134,9.564 193.065,10.765 191.249,10.765 C190.751,10.765 189.609,10.662 188.833,9.813 C188.394,9.3 187.954,8.524 187.954,7.001 C187.954,3.94 189.829,3.032 191.293,3.032 C191.776,3.032 192.875,3.135 193.548,3.94 C194.09,4.57 194.134,5.17 194.163,5.58 L192.772,5.58 L192.772,5.581 Z M196.389,0.016 L197.78,0.016 L197.78,4.307 C198.234,3.531 199.142,3.092 200.167,3.092 C200.943,3.092 202.056,3.37 202.481,4.263 C202.627,4.556 202.73,4.907 202.73,5.976 L202.73,10.574 L201.324,10.574 L201.324,6.224 C201.324,5.565 201.324,4.144 199.742,4.144 C198.717,4.144 198.204,4.774 198.014,5.125 C197.78,5.535 197.78,6.223 197.78,6.677 L197.78,10.573 L196.389,10.573 L196.389,0.016 Z M205.891,7.148 C205.862,8.671 206.491,9.799 208,9.799 C208.893,9.799 209.611,9.33 209.728,8.276 L211.105,8.276 C211.061,8.642 211.002,9.242 210.475,9.814 C210.153,10.18 209.42,10.795 207.941,10.795 C205.627,10.795 204.529,9.36 204.529,7.031 C204.529,5.581 204.822,4.38 205.979,3.575 C206.682,3.077 207.561,3.033 207.985,3.033 C211.28,3.033 211.207,5.947 211.178,7.148 L205.891,7.148 Z M209.772,6.181 C209.787,5.478 209.655,4.014 207.956,4.014 C207.063,4.014 205.979,4.556 205.95,6.181 L209.772,6.181 Z M213.408,4.717 C213.408,4.219 213.379,3.707 213.335,3.224 L214.726,3.224 L214.755,4.644 C215.019,3.619 215.898,3.282 216.512,3.194 C216.922,3.136 217.23,3.15 217.464,3.165 L217.464,4.512 L217.2,4.454 L216.804,4.439 C215.178,4.439 214.798,5.405 214.798,6.665 L214.798,10.575 L213.407,10.575 L213.407,4.717 L213.408,4.717 Z M227.653,0.001 L229.221,0.001 L233.497,10.575 L231.899,10.575 L230.757,7.822 L225.851,7.822 L224.709,10.575 L223.202,10.575 L227.653,0.001 Z M226.321,6.635 L230.319,6.635 L228.371,1.451 L226.321,6.635 Z M235.18,0.001 L236.541,0.001 L236.541,6.225 L239.294,3.223 L241.095,3.223 L237.99,6.342 L241.285,10.575 L239.485,10.575 L236.54,6.606 L236.54,10.575 L235.179,10.575 L235.179,0.001 L235.18,0.001 Z M247.516,10.575 C247.413,10.209 247.384,9.857 247.384,9.477 C246.726,10.692 245.729,10.81 245.114,10.81 C243.429,10.81 242.522,9.858 242.522,8.642 C242.522,8.056 242.726,7.119 243.81,6.489 C244.6,6.05 245.773,6.006 246.358,6.006 C246.71,6.006 246.929,6.021 247.354,6.05 C247.354,5.142 247.354,4.747 247.091,4.424 C246.813,4.058 246.212,3.941 245.817,3.941 C244.426,3.941 244.352,4.893 244.338,5.186 L242.961,5.186 C243.005,4.805 243.05,4.292 243.474,3.795 C244.029,3.18 245.07,3.004 245.846,3.004 C246.915,3.004 248.057,3.341 248.452,4.088 C248.687,4.527 248.701,4.879 248.701,5.216 L248.643,8.731 C248.643,8.848 248.657,9.83 248.76,10.576 L247.516,10.576 L247.516,10.575 Z M246.564,6.957 C246.007,6.957 243.913,6.957 243.913,8.451 C243.913,8.92 244.205,9.725 245.436,9.725 C246.139,9.725 246.666,9.447 247.003,8.934 C247.311,8.436 247.326,8.026 247.355,7.001 C247.105,6.972 246.901,6.957 246.564,6.957 Z M256.213,0.016 L257.59,0.016 L257.59,9.403 C257.59,9.564 257.62,10.194 257.648,10.575 L256.271,10.575 L256.243,9.403 C256.125,9.608 255.964,9.916 255.583,10.179 C254.983,10.589 254.265,10.721 253.768,10.721 C252.786,10.721 250.604,10.208 250.604,6.986 C250.604,4.189 252.2,2.973 253.928,2.973 C255.51,2.973 256.037,3.91 256.213,4.218 L256.213,0.016 Z M255.7,4.746 C255.408,4.365 254.866,3.999 254.09,3.999 C252.069,3.999 252.069,6.445 252.069,6.943 C252.069,8.247 252.405,9.755 254.09,9.755 C256.257,9.755 256.257,7.368 256.257,6.797 C256.257,5.727 256.008,5.142 255.7,4.746 Z M260.898,7.148 C260.868,8.671 261.498,9.799 263.006,9.799 C263.9,9.799 264.618,9.33 264.734,8.276 L266.111,8.276 C266.067,8.642 266.008,9.242 265.481,9.814 C265.159,10.18 264.428,10.795 262.948,10.795 C260.633,10.795 259.535,9.36 259.535,7.031 C259.535,5.581 259.829,4.38 260.985,3.575 C261.688,3.077 262.567,3.033 262.992,3.033 C266.287,3.033 266.214,5.947 266.184,7.148 L260.898,7.148 Z M264.779,6.181 C264.793,5.478 264.661,4.014 262.962,4.014 C262.069,4.014 260.985,4.556 260.955,6.181 L264.779,6.181 Z M267.967,4.204 L267.937,3.223 L269.329,3.223 L269.329,4.292 C270.032,3.135 271.028,3.033 271.658,3.033 C273.284,3.033 273.796,3.868 274.06,4.41 C274.309,4 274.909,3.033 276.535,3.033 C277.588,3.033 279.229,3.472 279.229,5.64 L279.229,10.575 L277.837,10.575 L277.837,5.859 C277.837,5.215 277.72,4.936 277.588,4.746 C277.355,4.409 276.885,4.102 276.183,4.102 C275.289,4.102 274.806,4.615 274.615,4.878 C274.293,5.332 274.293,6.137 274.293,6.46 L274.293,10.575 L272.902,10.575 L272.902,5.713 C272.902,4.805 272.375,4.102 271.29,4.102 C270.354,4.102 269.84,4.688 269.68,4.907 C269.372,5.332 269.358,5.932 269.358,6.401 L269.358,10.575 L267.966,10.575 L267.966,4.204 L267.967,4.204 Z M281.494,0.03 L283.149,0.03 L283.149,1.539 L281.494,1.539 L281.494,0.03 Z M281.641,3.223 L283.018,3.223 L283.018,10.575 L281.641,10.575 L281.641,3.223 Z M286.604,8.392 C286.59,8.949 286.882,9.725 288.216,9.725 C288.787,9.725 289.212,9.622 289.504,9.256 C289.65,9.065 289.739,8.817 289.739,8.568 C289.739,7.851 289.226,7.719 288.128,7.47 C286.591,7.118 285.301,6.811 285.301,5.273 C285.301,3.926 286.472,3.047 288.171,3.047 C289.094,3.047 290.383,3.311 290.822,4.189 C291.013,4.599 291.013,4.95 291.013,5.258 L289.607,5.258 C289.651,4.145 288.685,4.057 288.187,4.057 C287.982,4.057 286.694,4.057 286.694,5.111 C286.694,5.785 287.352,5.946 287.733,6.048 C289.768,6.531 290.208,6.648 290.647,7.059 C291.058,7.44 291.204,7.952 291.204,8.421 C291.204,9.241 290.75,9.944 290.208,10.281 C289.564,10.676 288.788,10.779 288.026,10.779 C286.533,10.779 285.142,10.164 285.156,8.392 L286.604,8.392 Z M297.618,5.581 C297.588,5.244 297.486,4.043 296.154,4.043 C294.25,4.043 294.25,6.254 294.25,6.811 C294.25,8.32 294.616,9.725 296.081,9.725 C297.252,9.725 297.648,8.846 297.677,8.129 L299.068,8.129 C298.981,9.564 297.911,10.765 296.095,10.765 C295.597,10.765 294.455,10.662 293.679,9.813 C293.239,9.3 292.8,8.524 292.8,7.001 C292.8,3.94 294.675,3.032 296.138,3.032 C296.622,3.032 297.72,3.135 298.394,3.94 C298.935,4.57 298.98,5.17 299.009,5.58 L297.618,5.58 L297.618,5.581 Z M301.032,0.016 L302.423,0.016 L302.423,4.307 C302.877,3.531 303.786,3.092 304.811,3.092 C305.586,3.092 306.7,3.37 307.124,4.263 C307.27,4.556 307.373,4.907 307.373,5.976 L307.373,10.574 L305.967,10.574 L305.967,6.224 C305.967,5.565 305.967,4.144 304.386,4.144 C303.361,4.144 302.848,4.774 302.658,5.125 C302.423,5.535 302.423,6.223 302.423,6.677 L302.423,10.573 L301.032,10.573 L301.032,0.016 Z M310.942,7.148 C310.912,8.671 311.542,9.799 313.05,9.799 C313.944,9.799 314.662,9.33 314.778,8.276 L316.155,8.276 C316.111,8.642 316.052,9.242 315.525,9.814 C315.203,10.18 314.472,10.795 312.992,10.795 C310.677,10.795 309.579,9.36 309.579,7.031 C309.579,5.581 309.873,4.38 311.029,3.575 C311.732,3.077 312.611,3.033 313.036,3.033 C316.331,3.033 316.258,5.947 316.228,7.148 L310.942,7.148 Z M314.823,6.181 C314.837,5.478 314.705,4.014 313.006,4.014 C312.113,4.014 311.029,4.556 310.999,6.181 L314.823,6.181 Z M318.254,4.717 C318.254,4.219 318.224,3.707 318.181,3.224 L319.573,3.224 L319.601,4.644 C319.865,3.619 320.744,3.282 321.359,3.194 C321.77,3.136 322.076,3.15 322.311,3.165 L322.311,4.512 L322.048,4.454 L321.651,4.439 C320.025,4.439 319.646,5.405 319.646,6.665 L319.646,10.575 L318.254,10.575 L318.254,4.717 Z M332.427,0.001 L333.994,0.001 L338.27,10.575 L336.674,10.575 L335.532,7.822 L330.626,7.822 L329.484,10.575 L327.975,10.575 L332.427,0.001 Z M331.093,6.635 L335.091,6.635 L333.143,1.451 L331.093,6.635 Z M341.019,3.223 L341.019,7.953 C341.019,8.671 341.179,9.578 342.586,9.578 C343.275,9.578 343.919,9.344 344.314,8.758 C344.622,8.319 344.622,7.747 344.622,7.381 L344.622,3.222 L346.042,3.222 L346.042,9.197 C346.042,9.344 346.072,10.164 346.086,10.574 L344.65,10.574 L344.622,9.315 C344.358,9.828 343.86,10.647 342.278,10.647 C340.463,10.647 339.613,9.607 339.613,8.158 L339.613,3.223 L341.019,3.223 Z M349.442,8.392 C349.427,8.949 349.719,9.725 351.052,9.725 C351.623,9.725 352.048,9.622 352.342,9.256 C352.488,9.065 352.575,8.817 352.575,8.568 C352.575,7.851 352.063,7.719 350.965,7.47 C349.427,7.118 348.138,6.811 348.138,5.273 C348.138,3.926 349.309,3.047 351.008,3.047 C351.93,3.047 353.219,3.311 353.659,4.189 C353.849,4.599 353.849,4.95 353.849,5.258 L352.443,5.258 C352.488,4.145 351.52,4.057 351.023,4.057 C350.818,4.057 349.53,4.057 349.53,5.111 C349.53,5.785 350.19,5.946 350.569,6.048 C352.605,6.531 353.044,6.648 353.484,7.059 C353.893,7.44 354.041,7.952 354.041,8.421 C354.041,9.241 353.587,9.944 353.044,10.281 C352.4,10.676 351.624,10.779 350.863,10.779 C349.368,10.779 347.977,10.164 347.993,8.392 L349.442,8.392 Z M355.694,3.194 L356.998,3.194 L356.998,1.656 L358.359,1.217 L358.359,3.194 L360,3.194 L360,4.205 L358.359,4.205 L358.359,8.613 C358.359,8.979 358.359,9.594 359.341,9.594 C359.619,9.594 359.882,9.55 360.001,9.521 L360.001,10.59 C359.752,10.634 359.355,10.678 358.858,10.678 C357.599,10.678 356.999,10.312 356.999,9.111 L356.999,4.205 L355.695,4.205 L355.695,3.194 L355.694,3.194 Z M366.517,10.575 C366.414,10.209 366.385,9.857 366.385,9.477 C365.727,10.692 364.73,10.81 364.115,10.81 C362.43,10.81 361.523,9.858 361.523,8.642 C361.523,8.056 361.727,7.119 362.811,6.489 C363.601,6.05 364.774,6.006 365.359,6.006 C365.711,6.006 365.93,6.021 366.355,6.05 C366.355,5.142 366.355,4.747 366.092,4.424 C365.814,4.058 365.213,3.941 364.818,3.941 C363.427,3.941 363.353,4.893 363.339,5.186 L361.962,5.186 C362.006,4.805 362.051,4.292 362.475,3.795 C363.03,3.18 364.071,3.004 364.847,3.004 C365.916,3.004 367.058,3.341 367.453,4.088 C367.688,4.527 367.702,4.879 367.702,5.216 L367.644,8.731 C367.644,8.848 367.658,9.83 367.761,10.576 L366.517,10.576 L366.517,10.575 Z M365.565,6.957 C365.008,6.957 362.914,6.957 362.914,8.451 C362.914,8.92 363.207,9.725 364.437,9.725 C365.14,9.725 365.667,9.447 366.004,8.934 C366.312,8.436 366.327,8.026 366.356,7.001 C366.106,6.972 365.902,6.957 365.565,6.957 Z M371.325,3.223 L371.325,7.953 C371.325,8.671 371.485,9.578 372.892,9.578 C373.581,9.578 374.225,9.344 374.62,8.758 C374.928,8.319 374.928,7.747 374.928,7.381 L374.928,3.222 L376.348,3.222 L376.348,9.197 C376.348,9.344 376.378,10.164 376.392,10.574 L374.956,10.574 L374.928,9.315 C374.664,9.828 374.166,10.647 372.584,10.647 C370.769,10.647 369.919,9.607 369.919,8.158 L369.919,3.223 L371.325,3.223 Z M379.952,8.392 C379.936,8.949 380.229,9.725 381.562,9.725 C382.133,9.725 382.558,9.622 382.852,9.256 C382.998,9.065 383.085,8.817 383.085,8.568 C383.085,7.851 382.573,7.719 381.475,7.47 C379.937,7.118 378.648,6.811 378.648,5.273 C378.648,3.926 379.819,3.047 381.518,3.047 C382.44,3.047 383.729,3.311 384.169,4.189 C384.359,4.599 384.359,4.95 384.359,5.258 L382.953,5.258 C382.998,4.145 382.03,4.057 381.533,4.057 C381.328,4.057 380.04,4.057 380.04,5.111 C380.04,5.785 380.7,5.946 381.079,6.048 C383.115,6.531 383.554,6.648 383.994,7.059 C384.403,7.44 384.551,7.952 384.551,8.421 C384.551,9.241 384.097,9.944 383.554,10.281 C382.91,10.676 382.134,10.779 381.373,10.779 C379.878,10.779 378.487,10.164 378.503,8.392 L379.952,8.392 Z M391.17,5.581 C391.14,5.244 391.038,4.043 389.705,4.043 C387.801,4.043 387.801,6.254 387.801,6.811 C387.801,8.32 388.168,9.725 389.632,9.725 C390.803,9.725 391.199,8.846 391.228,8.129 L392.62,8.129 C392.531,9.564 391.463,10.765 389.647,10.765 C389.148,10.765 388.006,10.662 387.23,9.813 C386.791,9.3 386.351,8.524 386.351,7.001 C386.351,3.94 388.226,3.032 389.691,3.032 C390.173,3.032 391.273,3.135 391.947,3.94 C392.488,4.57 392.532,5.17 392.562,5.58 L391.17,5.58 L391.17,5.581 Z M394.583,0.016 L395.975,0.016 L395.975,4.307 C396.428,3.531 397.336,3.092 398.361,3.092 C399.137,3.092 400.25,3.37 400.674,4.263 C400.822,4.556 400.923,4.907 400.923,5.976 L400.923,10.574 L399.518,10.574 L399.518,6.224 C399.518,5.565 399.518,4.144 397.936,4.144 C396.911,4.144 396.399,4.774 396.208,5.125 C395.975,5.535 395.975,6.223 395.975,6.677 L395.975,10.573 L394.583,10.573 L394.583,0.016 Z M408.522,0.016 L409.899,0.016 L409.899,9.403 C409.899,9.564 409.929,10.194 409.958,10.575 L408.581,10.575 L408.551,9.403 C408.434,9.608 408.273,9.916 407.891,10.179 C407.292,10.589 406.573,10.721 406.076,10.721 C405.094,10.721 402.913,10.208 402.913,6.986 C402.913,4.189 404.509,2.973 406.237,2.973 C407.818,2.973 408.345,3.91 408.521,4.218 L408.521,0.016 L408.522,0.016 Z M408.01,4.746 C407.717,4.365 407.175,3.999 406.398,3.999 C404.377,3.999 404.377,6.445 404.377,6.943 C404.377,8.247 404.715,9.755 406.398,9.755 C408.566003,9.755 408.566,7.368 408.566,6.797 C408.567,5.727 408.316,5.142 408.01,4.746 Z M412.136,0.03 L413.791,0.03 L413.791,1.539 L412.136,1.539 L412.136,0.03 Z M412.282,3.223 L413.659,3.223 L413.659,10.575 L412.282,10.575 L412.282,3.223 Z M417.242,7.148 C417.212,8.671 417.842,9.799 419.351,9.799 C420.244,9.799 420.961,9.33 421.079,8.276 L422.456,8.276 C422.411,8.642 422.353,9.242 421.826,9.814 C421.504,10.18 420.771,10.795 419.292,10.795 C416.979,10.795 415.88,9.36 415.88,7.031 C415.88,5.581 416.173,4.38 417.33,3.575 C418.033,3.077 418.911,3.033 419.337,3.033 C422.632,3.033 422.559,5.947 422.529,7.148 L417.242,7.148 Z M421.123,6.181 C421.137,5.478 421.006,4.014 419.308,4.014 C418.414,4.014 417.331,4.556 417.301,6.181 L421.123,6.181 Z M424.537,4.072 L424.523,3.223 L425.9,3.223 L425.914,4.409 C426.076,4.101 426.603,3.076 428.272,3.076 C428.932,3.076 430.937,3.325 430.937,5.58 L430.937,10.574 L429.532,10.574 L429.532,5.902 C429.532,5.419 429.473,4.979 429.135,4.642 C428.785,4.305 428.301,4.144 427.833,4.144 C426.836,4.144 425.913,4.861 425.913,6.341 L425.913,10.574 L424.536,10.574 L424.536,4.072 L424.537,4.072 Z M434.44,8.392 C434.425,8.949 434.717,9.725 436.05,9.725 C436.621,9.725 437.046,9.622 437.34,9.256 C437.486,9.065 437.573,8.817 437.573,8.568 C437.573,7.851 437.061,7.719 435.963,7.47 C434.425,7.118 433.136,6.811 433.136,5.273 C433.136,3.926 434.307,3.047 436.006,3.047 C436.929,3.047 438.217,3.311 438.657,4.189 C438.847,4.599 438.847,4.95 438.847,5.258 L437.441,5.258 C437.486,4.145 436.519,4.057 436.021,4.057 C435.816,4.057 434.528,4.057 434.528,5.111 C434.528,5.785 435.188,5.946 435.567,6.048 C437.603,6.531 438.042,6.648 438.482,7.059 C438.891,7.44 439.039,7.952 439.039,8.421 C439.039,9.241 438.585,9.944 438.042,10.281 C437.398,10.676 436.622,10.779 435.861,10.779 C434.366,10.779 432.975,10.164 432.991,8.392 L434.44,8.392 Z M440.285,3.194 L441.589,3.194 L441.589,1.656 L442.95,1.217 L442.95,3.194 L444.591,3.194 L444.591,4.205 L442.95,4.205 L442.95,8.613 C442.95,8.979 442.95,9.594 443.932,9.594 C444.21,9.594 444.473,9.55 444.592,9.521 L444.592,10.59 C444.343,10.634 443.947,10.678 443.449,10.678 C442.19,10.678 441.59,10.312 441.59,9.111 L441.59,4.205 L440.286,4.205 L440.286,3.194 L440.285,3.194 Z" id="Shape" fill="#000000"></path>
                <g id="Logo" fill="#0060AF">
                    <path d="M-3.55271368e-15,29.032 L-3.55271368e-15,-3.55271368e-15 L11.518,-3.55271368e-15 C15.941,-3.55271368e-15 19.361,1.332 21.779,3.997 C24.101,6.552 25.262,10.062 25.262,14.526 C25.262,19.485 23.771,23.195 20.791,25.653 C18.057,27.906 14.163,29.032 9.108,29.032 L-3.55271368e-15,29.032 Z M5.975,24.541 L10.116,24.541 C16.27,24.541 19.347,21.203 19.347,14.527 C19.347,11.395 18.578,8.964 17.039,7.233 C15.418,5.406 13.062,4.493 9.972,4.493 L5.975,4.493 L5.975,24.541 Z M25.568,29.032 L36.365,-3.55271368e-15 L44.009,-3.55271368e-15 L54.785,29.032 L48.356,29.032 L46.275,22.85 L33.995,22.85 L31.935,29.032 L25.568,29.032 Z M40.115,4.616 L35.499,18.359 L44.771,18.359 L40.115,4.616 Z M56.701,29.032 L67.498,-3.55271368e-15 L75.142,-3.55271368e-15 L85.918,29.032 L79.489,29.032 L77.408,22.85 L65.128,22.85 L63.068,29.032 L56.701,29.032 Z M71.248,4.616 L66.632,18.359 L75.904,18.359 L71.248,4.616 Z M89.03,29.032 L89.03,-3.55271368e-15 L100.548,-3.55271368e-15 C104.971,-3.55271368e-15 108.391,1.332 110.809,3.997 C113.131,6.552 114.292,10.062 114.292,14.526 C114.292,19.485 112.801,23.195 109.821,25.653 C107.087,27.906 103.193,29.032 98.138,29.032 L89.03,29.032 Z M95.006,24.541 L99.147,24.541 C105.301,24.541 108.378,21.203 108.378,14.527 C108.378,11.395 107.609,8.964 106.07,7.233 C104.449,5.406 102.093,4.493 99.003,4.493 L95.006,4.493 L95.006,24.541 Z" id="Shape"></path>
                </g>
            </g>
        </g>
    </g>
</svg>
