<?xml version="1.0" encoding="utf-8"?>
<!-- Generator: Adobe Illustrator 23.1.1, SVG Export Plug-In . SVG Version: 6.00 Build 0)  -->
<svg version="1.1" xmlns="http://www.w3.org/2000/svg" xmlns:xlink="http://www.w3.org/1999/xlink" x="0px" y="0px"
	 viewBox="0 0 447.9 263.6" style="enable-background:new 0 0 447.9 263.6;" xml:space="preserve">
<style type="text/css">
	.st0{display:none;}
	.st1{display:inline;}
	.st2{fill:url(#SVGID_1_);}
	.st3{fill:url(#SVGID_2_);}
	.st4{fill:url(#SVGID_3_);}
	.st5{fill:url(#SVGID_4_);}
	.st6{fill:#00ADE8;}
	.st7{fill:url(#SVGID_5_);}
	.st8{fill:none;}
	.st9{fill:#5F6E70;}
	.st10{fill:#666E73;}
	.st11{fill:url(#SVGID_6_);}
	.st12{fill:url(#SVGID_7_);}
	.st13{fill:url(#SVGID_8_);}
	.st14{fill:url(#SVGID_9_);}
	.st15{fill:#44AAE1;}
	.st16{fill:url(#SVGID_10_);}
	.st17{display:none;opacity:0.28;fill:#82368C;}
</style>
<g id="_x3C_Layer_x3E_" class="st0">
	<g class="st1">
		
			<linearGradient id="SVGID_1_" gradientUnits="userSpaceOnUse" x1="488.2144" y1="197.4222" x2="488.2144" y2="219.3829" gradientTransform="matrix(1 -8.726535e-03 8.726535e-03 1 -2.7088 3.7969)">
			<stop  offset="0" style="stop-color:#8ABF47"/>
			<stop  offset="1" style="stop-color:#44AC34"/>
		</linearGradient>
		<path class="st2" d="M498.8,208.8c-1,5.7-8,10.5-15.6,9.9c-7.7-0.7-9.6-4.1-5-7.8c4.5-3.8,10.5-8.5,14.7-9.8
			C497.1,199.7,499.8,203.1,498.8,208.8z"/>
		
			<linearGradient id="SVGID_2_" gradientUnits="userSpaceOnUse" x1="533.1334" y1="282.1494" x2="533.1334" y2="241.2358" gradientTransform="matrix(1 -8.726535e-03 8.726535e-03 1 -2.7088 3.7969)">
			<stop  offset="0" style="stop-color:#044F9E"/>
			<stop  offset="1" style="stop-color:#1966B0"/>
		</linearGradient>
		<path class="st3" d="M536.2,199.9c6.8,7,9.9,13.1,3.4,14.1c-6.3,0.9-14.3-4.2-16.8-11c-2.7-6.8-1.6-13.5,0.8-14.8
			C526,187,529.5,192.8,536.2,199.9z"/>
		
			<linearGradient id="SVGID_3_" gradientUnits="userSpaceOnUse" x1="605.1225" y1="303.0718" x2="605.1225" y2="236.0364" gradientTransform="matrix(1 -8.726535e-03 8.726535e-03 1 -2.7088 3.7969)">
			<stop  offset="0" style="stop-color:#8ABF47"/>
			<stop  offset="1" style="stop-color:#44AC34"/>
		</linearGradient>
		<path class="st4" d="M637,260.9c14,6.7,7.2,24.9-15.9,33.3c-23.4,8.1-47.9-1.9-53.8-13.8c-5.9-12,1.2-21,16.1-24.4
			C598.4,253,622.8,253.9,637,260.9z"/>
		
			<linearGradient id="SVGID_4_" gradientUnits="userSpaceOnUse" x1="485.3721" y1="312.8401" x2="485.3721" y2="252.6473" gradientTransform="matrix(1 -8.726535e-03 8.726535e-03 1 -2.7088 3.7969)">
			<stop  offset="0" style="stop-color:#044F9E"/>
			<stop  offset="1" style="stop-color:#1966B0"/>
		</linearGradient>
		<path class="st5" d="M519.5,204c-2.4-6.8-5.8-10.9-9.1-9.3c-3.3,1.6-6.6,7.6-7.4,13.4c0,0,0,0,0,0c-0.8,10.6-7.8,16.4-23.1,14.4
			c0,0,0,0,0,0c-7.8-0.7-19.9,0.3-27.3,2.3c-7.4,1.8-3.7,8.8,9,14.4c12.9,5.4,25.9,2.1,28.2-4.5c0,0,0,0,0,0c0,0,0,0,0,0
			c5.4-11,12.3-15.3,23.3-16.8c0,0,0,0,0,0C519.6,217.2,522,210.7,519.5,204z"/>
		<path class="st6" d="M578.5,229.9c-12.7-6.4-26.8-10.8-33.4-9.8c-3.4,0.6-5.7,2.6-6.5,5.6c-1.7,5.4-7.6,5.8-14.2,1.4
			c-3.5-2.4-7.3-3.7-10.8-3.5c-6.8,0.6-13.9,5.5-16,12.2c-1.3,3.7,0.8,8.2,5.2,11.6c5.7,5.8,6.3,11-3.5,14.9
			c-5.7,1.9-10.2,5.3-12.1,10.2c-3.7,9.2,10.1,25.8,33.2,30c23.1,4,37.6-9,31.9-20.9c-2.9-6.3-8.5-11.3-15.1-14.9
			c-12-7.2-11.4-12.4-5.6-18.4c-0.1,0-0.1,0-0.2,0c5.9-6.1,10.3-6.5,22.8-1.6c0,0,0,0,0,0c6.3,2.5,13.8,3.5,21.2,2
			C590.1,245.3,591.2,236,578.5,229.9z M531.5,248.2C531.5,248.2,531.5,248.1,531.5,248.2C531.5,248.1,531.5,248.2,531.5,248.2
			C531.5,248.2,531.5,248.2,531.5,248.2z"/>
		
			<linearGradient id="SVGID_5_" gradientUnits="userSpaceOnUse" x1="443.8647" y1="278.6681" x2="443.8647" y2="213.5695" gradientTransform="matrix(1 -8.726535e-03 8.726535e-03 1 -2.7088 3.7969)">
			<stop  offset="0" style="stop-color:#044F9E"/>
			<stop  offset="1" style="stop-color:#1966B0"/>
		</linearGradient>
		<path class="st7" d="M473.4,267.4c-3.8,9.2-24.9,10.1-43.3-4.3c-18-14.5-22.1-29.8-13.3-30.2c9-0.7,26.5,4.6,39.6,10.2
			C469.3,249.1,477.3,258.3,473.4,267.4z"/>
	</g>
	<g class="st1">
		<path d="M318.8,381.8l0,1.4c-1.9-1.1-3.8-1.6-5.6-1.6c-2,0-3.7,0.7-5,2c-1.3,1.3-2,3-2,5.1c0,2,0.7,3.7,2,5.1c1.3,1.3,3.1,2,5.4,2
			c1.6,0,3.1-0.3,4.4-1l0-4.3l-3.4,0l0-1l4.6,0l0,6.1c-1.9,0.9-3.8,1.4-5.7,1.4c-2.5,0-4.5-0.8-6.2-2.4c-1.7-1.6-2.5-3.5-2.5-5.9
			c0-2.3,0.8-4.3,2.4-5.9c1.6-1.6,3.7-2.3,6.1-2.3C315,380.5,316.8,380.9,318.8,381.8z"/>
		<path d="M331,380.7l0,1l-7.5,0l0,6.4l7.3,0l0,1l-7.3,0l0,6.5l7.6,0l0,1l-8.9,0l0-16L331,380.7z"/>
		<path d="M333.7,380.7l4.1,0c1.7,0,3,0.4,3.9,1.1c0.9,0.7,1.4,1.8,1.4,3c0,1.9-1,3.2-3,3.9c0.5,0.3,1.2,1.1,2.1,2.4l3.6,5.5l-1.5,0
			l-2.8-4.4c-0.9-1.5-1.6-2.4-2.2-2.8c-0.5-0.4-1.3-0.5-2.3-0.5l-2.2,0l0,7.7l-1.2,0L333.7,380.7z M335,381.7l0,6.3l2.6,0
			c1.3,0,2.4-0.3,3.1-0.8c0.7-0.5,1.1-1.3,1.1-2.3c0-1-0.4-1.8-1.1-2.3c-0.7-0.6-1.8-0.8-3.1-0.8L335,381.7z"/>
		<path d="M354.4,388.1l6.1-7.4l1.2,0l0,16l-1.2,0l0-14.2l-6.1,7.5l-6.1-7.5l0,14.2l-1.2,0l0-16l1.2,0L354.4,388.1z"/>
		<path d="M371.7,380.6l7.4,16.2l-1.3,0l-2.5-5.5l-7.8,0l-2.5,5.5l-1.3,0l7.4-16.2L371.7,380.6z M374.8,390.2l-3.4-7.6l-3.4,7.6
			L374.8,390.2z"/>
		<path d="M395.3,380.7l0,16l-1,0l-12.1-14l0,14l-1.2,0l0-16l1,0l12.1,14l0-14L395.3,380.7z"/>
		<path d="M413.7,380.7l0,1l-7,0l0,6.1l6.3,0l0,1l-6.3,0l0,7.9l-1.2,0l0-16L413.7,380.7z"/>
		<path d="M424.4,380.7l0,1l-7.5,0l0,6.4l7.3,0l0,1l-7.3,0l0,6.5l7.6,0l0,1l-8.9,0l0-16L424.4,380.7z"/>
		<path d="M427.2,380.7l5.6,0c2.8,0,5,0.7,6.5,2.2c1.5,1.5,2.2,3.4,2.2,5.8c0,2.3-0.7,4.2-2.2,5.7c-1.5,1.5-3.6,2.3-6.3,2.3l-5.8,0
			L427.2,380.7z M428.4,381.7l0,14l4.5,0c2.1,0,3.8-0.6,5.1-1.9c1.4-1.3,2.1-3,2.1-5.1c0-2.1-0.7-3.7-2-5c-1.4-1.3-3.1-2-5.3-2
			L428.4,381.7z"/>
		<path d="M453.2,380.7l0,1l-7.5,0l0,6.4l7.3,0l0,1l-7.3,0l0,6.5l7.6,0l0,1l-8.9,0l0-16L453.2,380.7z"/>
		<path d="M455.9,380.7l4.1,0c1.7,0,3,0.4,3.9,1.1c0.9,0.7,1.4,1.8,1.4,3c0,1.9-1,3.2-3,3.9c0.5,0.3,1.2,1.1,2.1,2.4l3.6,5.5l-1.5,0
			l-2.8-4.4c-0.9-1.5-1.6-2.4-2.2-2.8c-0.5-0.4-1.3-0.5-2.3-0.5l-2.2,0l0,7.7l-1.2,0L455.9,380.7z M457.2,381.8l0,6.3l2.6,0
			c1.3,0,2.4-0.3,3.1-0.8c0.7-0.5,1.1-1.3,1.1-2.3c0-1-0.4-1.8-1.1-2.3c-0.7-0.6-1.8-0.8-3.1-0.8L457.2,381.8z"/>
		<path d="M475.6,380.6l7.4,16.2l-1.3,0l-2.5-5.5l-7.8,0l-2.5,5.5l-1.3,0l7.4-16.2H475.6z M478.7,390.2l-3.4-7.6l-3.4,7.6
			L478.7,390.2z"/>
		<path d="M494,380.7l0,1l-6,0l0,15l-1.2,0l0-15l-6,0l0-1L494,380.7z"/>
		<path d="M497.2,380.7l0,16l-1.2,0l0-16L497.2,380.7z"/>
		<path d="M508.6,380.5c2.4,0,4.4,0.8,6,2.4c1.6,1.6,2.5,3.5,2.5,5.8c0,2.3-0.8,4.2-2.5,5.8c-1.6,1.6-3.6,2.4-6,2.4
			c-2.3,0-4.3-0.8-6-2.4c-1.6-1.6-2.4-3.5-2.4-5.8c0-2.3,0.8-4.2,2.4-5.8C504.3,381.3,506.3,380.5,508.6,380.5z M508.6,395.8
			c2,0,3.7-0.7,5-2c1.4-1.4,2-3,2-5c0-2-0.7-3.7-2-5c-1.4-1.4-3-2.1-5-2.1c-2,0-3.7,0.7-5.1,2c-1.4,1.4-2.1,3-2.1,5
			c0,2,0.7,3.7,2.1,5C505,395.2,506.6,395.8,508.6,395.8z"/>
		<path d="M534.4,380.8l0,16l-1,0l-12.1-14l0,14l-1.2,0l0-16l1,0l12.1,14l0-14L534.4,380.8z"/>
		<path d="M302.3,408.9l0,1l-7,0l0,6.1l6.3,0l0,1l-6.3,0l0,7.9l-1.2,0l0-16L302.3,408.9z"/>
		<path d="M312.2,408.7c2.4,0,4.4,0.8,6,2.4c1.6,1.6,2.5,3.5,2.5,5.8c0,2.3-0.8,4.2-2.5,5.8c-1.6,1.6-3.6,2.4-6,2.4
			c-2.3,0-4.3-0.8-6-2.4c-1.6-1.6-2.4-3.5-2.4-5.8c0-2.3,0.8-4.2,2.4-5.8C307.8,409.5,309.8,408.7,312.2,408.7z M312.2,424
			c2,0,3.7-0.7,5-2c1.4-1.4,2-3,2-5c0-2-0.7-3.7-2-5c-1.4-1.4-3-2.1-5-2.1c-2,0-3.7,0.7-5.1,2c-1.4,1.4-2.1,3-2.1,5
			c0,2,0.7,3.7,2.1,5C308.5,423.3,310.2,424,312.2,424z"/>
		<path d="M323.6,408.9l4.1,0c1.7,0,3,0.4,3.9,1.1c0.9,0.7,1.4,1.8,1.4,3c0,1.9-1,3.2-3,3.9c0.5,0.3,1.2,1.1,2.1,2.4l3.6,5.5l-1.5,0
			l-2.8-4.4c-0.9-1.5-1.6-2.4-2.2-2.8c-0.5-0.4-1.3-0.5-2.3-0.5l-2.2,0l0,7.7l-1.2,0L323.6,408.9z M324.9,409.9l0,6.3l2.6,0
			c1.3,0,2.4-0.3,3.1-0.8c0.7-0.5,1.1-1.3,1.1-2.3c0-1-0.4-1.8-1.1-2.3c-0.7-0.6-1.8-0.8-3.1-0.8L324.9,409.9z"/>
		<path d="M343.6,408.9l3.3,0c1.7,0,3.1,0.4,4,1.1c0.9,0.7,1.3,1.8,1.3,3c0,1.5-0.8,2.7-2.3,3.6c2.5,0.5,3.7,1.9,3.7,4.1
			c0,1.3-0.5,2.3-1.4,3.1c-1,0.8-2.3,1.2-3.9,1.2l-4.7,0L343.6,408.9z M344.8,417.4l0,6.5l3.3,0c1.4,0,2.4-0.3,3.1-0.9
			c0.7-0.6,1.1-1.4,1.1-2.4c0-2.2-1.6-3.3-4.7-3.3L344.8,417.4z M344.8,409.9l0,6.4l1.7,0c2.9,0,4.3-1.1,4.3-3.2
			c0-2.1-1.5-3.2-4.4-3.2L344.8,409.9z"/>
		<path d="M357.1,408.9l0,16l-1.2,0l0-16L357.1,408.9z"/>
		<path d="M368.5,408.7c2.4,0,4.4,0.8,6,2.4c1.6,1.6,2.5,3.5,2.5,5.8c0,2.3-0.8,4.2-2.5,5.8c-1.6,1.6-3.6,2.4-6,2.4
			c-2.3,0-4.3-0.8-6-2.4c-1.6-1.6-2.4-3.5-2.4-5.8c0-2.3,0.8-4.2,2.4-5.8C364.2,409.5,366.2,408.7,368.5,408.7z M368.6,424
			c2,0,3.7-0.7,5-2c1.4-1.4,2-3,2-5c0-2-0.7-3.7-2-5c-1.4-1.4-3-2.1-5-2.1c-2,0-3.7,0.7-5.1,2c-1.4,1.4-2.1,3-2.1,5
			c0,2,0.7,3.7,2.1,5C364.9,423.3,366.6,424,368.6,424z"/>
		<path d="M381.3,408.9l0,15l7.9,0l0,1l-9.1,0l0-16L381.3,408.9z"/>
		<path d="M398.8,408.7c2.4,0,4.4,0.8,6,2.4c1.6,1.6,2.5,3.5,2.5,5.8c0,2.3-0.8,4.2-2.5,5.8c-1.6,1.6-3.6,2.4-6,2.4
			c-2.3,0-4.3-0.8-6-2.4c-1.6-1.6-2.4-3.5-2.4-5.8c0-2.3,0.8-4.2,2.4-5.8C394.4,409.5,396.4,408.7,398.8,408.7z M398.8,424
			c2,0,3.7-0.7,5-2c1.4-1.4,2-3,2-5c0-2-0.7-3.7-2-5c-1.4-1.4-3-2.1-5-2.1c-2,0-3.7,0.7-5.1,2c-1.4,1.4-2.1,3-2.1,5
			c0,2,0.7,3.7,2.1,5C395.1,423.3,396.8,424,398.8,424z"/>
		<path d="M423.6,410.1l0,1.4c-1.9-1.1-3.8-1.6-5.6-1.6c-2,0-3.7,0.7-5,2c-1.3,1.3-2,3-2,5.1c0,2,0.7,3.7,2,5.1c1.3,1.3,3.1,2,5.4,2
			c1.6,0,3.1-0.3,4.4-1l0-4.3l-3.4,0l0-1l4.6,0l0,6.1c-1.9,0.9-3.8,1.4-5.7,1.4c-2.5,0-4.5-0.8-6.2-2.4c-1.7-1.6-2.5-3.5-2.5-5.9
			c0-2.3,0.8-4.3,2.4-5.8c1.6-1.6,3.7-2.3,6.1-2.3C419.8,408.7,421.6,409.2,423.6,410.1z"/>
		<path d="M428.3,408.9l0,16l-1.2,0l0-16L428.3,408.9z"/>
		<path d="M445.2,410.1l0,1.4c-1.9-1-3.8-1.6-5.7-1.6c-2,0-3.6,0.7-5,2c-1.3,1.4-2,3-2,5.1c0,2.1,0.7,3.7,2,5.1c1.3,1.3,3,2,5.1,2
			c1.7,0,3.6-0.5,5.7-1.6l0,1.3c-1.9,1-3.8,1.5-5.6,1.5c-2.4,0-4.4-0.8-6.1-2.3c-1.6-1.6-2.4-3.5-2.4-5.9c0-2.3,0.8-4.3,2.5-5.9
			c1.7-1.6,3.6-2.4,5.9-2.4C441.4,408.7,443.2,409.2,445.2,410.1z"/>
		<path d="M455.1,408.8l7.4,16.2l-1.3,0l-2.5-5.5l-7.8,0l-2.5,5.5l-1.3,0l7.4-16.2H455.1z M458.2,418.4l-3.4-7.6l-3.4,7.6
			L458.2,418.4z"/>
		<path d="M465.6,408.9l0,15l7.9,0l0,1l-9.1,0l0-16L465.6,408.9z"/>
		<path d="M481.8,409l5.6,0c2.8,0,5,0.7,6.5,2.2c1.5,1.5,2.2,3.4,2.2,5.8c0,2.3-0.7,4.2-2.2,5.7c-1.5,1.5-3.6,2.3-6.3,2.3l-5.8,0
			L481.8,409z M483.1,410l0,14l4.5,0c2.1,0,3.8-0.6,5.1-1.9c1.4-1.3,2.1-3,2.1-5.1c0-2.1-0.7-3.7-2-5c-1.4-1.3-3.1-2-5.3-2
			L483.1,410z"/>
		<path d="M504.5,408.8l7.4,16.2l-1.3,0l-2.5-5.5l-7.8,0l-2.5,5.5l-1.3,0l7.4-16.2H504.5z M507.6,418.4l-3.4-7.6l-3.4,7.6
			L507.6,418.4z"/>
		<path d="M522.9,409l0,1l-6,0l0,15l-1.2,0l0-15l-6,0l0-1L522.9,409z"/>
		<path d="M528.8,408.9l7.4,16.2l-1.3,0l-2.5-5.5l-7.8,0L522,425l-1.3,0l7.4-16.2L528.8,408.9z M531.9,418.4l-3.4-7.6l-3.4,7.6
			L531.9,418.4z"/>
	</g>
	<g class="st1">
		<path class="st8" d="M240.8,301.7c-3.7,3.7-5.5,8.1-5.5,13.3c0,5.4,1.8,10,5.5,13.8c3.7,3.8,8.2,5.7,13.5,5.7
			c5.3,0,9.8-1.9,13.6-5.7c3.8-3.8,5.7-8.3,5.7-13.6c0-5.3-1.9-9.8-5.7-13.5c-3.8-3.7-8.4-5.6-13.7-5.6
			C248.9,296.2,244.4,298,240.8,301.7z"/>
		<path class="st8" d="M230.8,378.9c0,8.9,8.2,13.3,24.6,13.3c7.5,0,13.4-1.3,17.8-3.8c4.4-2.6,6.6-5.9,6.6-10.1
			c0-8.4-7.6-12.7-22.9-12.7C239.5,365.6,230.8,370,230.8,378.9z"/>
		<path class="st8" d="M470.1,325.9c0,8.6,2.7,15.7,8.2,21.3c5.4,5.7,12.2,8.5,20.4,8.5c8.1,0,14.8-2.8,20.3-8.5
			c5.4-5.7,8.1-12.8,8.1-21.3c0-4.4-0.8-8.5-2.2-12.2c-1.5-0.2-2.9-0.4-4.4-0.6c-13.8-2.5-25.5-7.9-34.1-14.5
			c-2.9,1.4-5.6,3.3-8,5.8C472.9,310.2,470.1,317.3,470.1,325.9z"/>
		<path class="st8" d="M386.1,294.8c-8.6,0-16.9,4.6-25,13.9l0,43.6c5.9,2.2,11.8,3.4,17.7,3.4c9.3,0,17-3,23-8.9
			c6.1-6,9.1-13.5,9.1-22.7c0-8.5-2.3-15.5-7-21C399.2,297.6,393.3,294.8,386.1,294.8z"/>
		<path d="M235.8,296.9c-5.3,4.8-7.9,10.9-7.9,18.5c0,5.3,1.6,10.2,4.9,14.5c3.3,4.4,8,7.5,14.4,9.4l0,0.3
			c-9.6,2.8-14.4,6.7-14.4,11.7c0,5,3.9,8.4,11.7,10.3l0,0.3c-14,2.2-21,8.1-21,17.4c0,5.8,2.7,10.4,8.2,14
			c5.5,3.5,13.2,5.3,23.3,5.3c10.1,0,18-1.9,23.7-5.6c5.7-3.7,8.5-8.9,8.5-15.4c0-5.5-1.8-10-5.3-13.3c-3.5-3.3-10.4-5.3-20.6-5.9
			c-10.2-0.6-16.3-1.5-18.2-2.7c-2-1.3-2.9-2.9-2.9-5c0-1.8,0.8-3.3,2.3-4.7c1.5-1.4,5.2-2.8,11.2-4.3c5.9-1.5,10.7-3.1,14.3-4.7
			c3.6-1.6,6.7-4.1,9.2-7.6c2.6-3.5,3.9-8.2,3.9-14.2c0-6.7-3.3-13-9.9-19.1l16.4,0l0-6.3l-28.9,0
			C248.7,289.8,241.1,292.2,235.8,296.9z M279.8,378.3c0,4.2-2.2,7.5-6.6,10.1c-4.4,2.6-10.3,3.8-17.8,3.8
			c-16.4,0-24.6-4.4-24.6-13.3c0-8.9,8.7-13.3,26.1-13.3C272.2,365.6,279.9,369.8,279.8,378.3z M273.6,315.3c0,5.3-1.9,9.8-5.7,13.6
			c-3.8,3.8-8.3,5.7-13.6,5.7c-5.3,0-9.8-1.9-13.5-5.7c-3.7-3.8-5.6-8.4-5.5-13.8c0-5.2,1.8-9.6,5.5-13.3c3.7-3.6,8.1-5.5,13.5-5.5
			c5.4,0,9.9,1.9,13.7,5.6C271.7,305.5,273.6,310,273.6,315.3z"/>
		<path d="M311.3,258.3c-4.8,4.8-7.2,11.4-7.2,19.7l0,11.8l-13.3,0l0,6.3l13.3,0l0,65.7l7.7,0l0-65.7l13.9,0l0-6.3l-13.9,0l0-8.9
			c0-14.9,5.8-22.3,17.5-22.3c3.5,0,7.8,0.9,13,2.7l0-7.2c-5-2-9.3-3.1-13.1-3.1C322,251.1,316.1,253.5,311.3,258.3z"/>
		<path class="st9" d="M387.1,288.4c-9.7,0-18.3,3.9-26,11.7l0-47.6l-7.7,0l0,105.3c9,3.6,17.5,5.4,25.5,5.4
			c12.2,0,21.9-3.6,29.2-10.8c7.3-7.2,11-16.8,11-28.8c0-10.3-3-18.8-9-25.3C404.1,291.7,396.4,288.4,387.1,288.4z M401.8,346.8
			c-6.1,6-13.8,9-23,8.9c-5.8,0-11.7-1.1-17.7-3.4l0-43.6c8.1-9.3,16.5-13.9,25-13.9c7.1,0,13.1,2.7,17.8,8.2c4.7,5.5,7,12.5,7,21
			C410.9,333.2,407.9,340.8,401.8,346.8z"/>
		<rect x="436.3" y="289.9" class="st9" width="7.7" height="72"/>
		<path class="st9" d="M524.8,313.7c1.5,3.7,2.2,7.8,2.2,12.2c0,8.6-2.7,15.7-8.1,21.3c-5.4,5.7-12.2,8.5-20.3,8.5
			c-8.1,0-14.9-2.8-20.4-8.5c-5.4-5.7-8.2-12.8-8.2-21.3c0-8.6,2.7-15.8,8.2-21.4c2.4-2.5,5.1-4.4,8-5.8c-2.3-1.7-4.4-3.5-6.3-5.4
			c-2.7,1.6-5.2,3.5-7.5,5.9c-7,7.1-10.5,16.1-10.5,26.8c0,10.6,3.5,19.5,10.5,26.6c7,7.1,15.7,10.7,26.2,10.7
			c10.4,0,19.1-3.6,26.1-10.7c7-7.1,10.5-16,10.5-26.6c0-4.2-0.5-8.1-1.6-11.7C530.8,314.3,527.9,314.1,524.8,313.7z"/>
	</g>
</g>
<g id="Layer_2">
	<g>
		<g>
			<path d="M108.7,208.4c-1.7-1-3.6-1.5-5.4-1.5c-4,0-6.9,3-6.9,6.9c0,4.3,2.8,7.2,7.1,7.2c1.5,0,2.7-0.3,4.3-1v-4.4h-3.4v-1.1h4.7
				v6.3c-1.7,0.8-3.3,1.3-5.5,1.3c-5.4,0-8.4-3.7-8.4-8.2c0-4.6,3.3-8.2,8.3-8.2c1.8,0,3.4,0.4,5.3,1.2V208.4z"/>
			<path d="M120.9,206.1v1.1h-7.2v6.2h7v1.1h-7v6.4h7.4v1.1h-8.6v-16H120.9z"/>
			<path d="M123.6,206.1h4c3.2,0,4.9,1.6,4.9,4.1c0,2.1-1.2,3.5-3.3,3.9c1.1,0.5,1.6,1,2.6,2.6l3.4,5.3h-1.5l-3.1-4.9
				c-1.4-2.1-2.3-2.6-3.9-2.6h-1.9v7.5h-1.2V206.1z M126.7,213.4c2.7,0,4.6-0.6,4.6-3.2c0-2.3-1.6-3-3.9-3h-2.5v6.2H126.7z"/>
			<path d="M137.2,206.1h1.2l6,7.5l6-7.5h1.2v16h-1.2v-14h0l-5.8,7.3h-0.2l-5.8-7.3h0v14h-1.2V206.1z"/>
			<path d="M161.4,205.9l7.1,16.1h-1.3l-2.3-5.3h-7.7l-2.3,5.3h-1.3l7-16.1H161.4z M157.6,215.6h6.8l-3.4-7.8L157.6,215.6z"/>
			<path d="M171.7,206.1l11.9,14v-14h1.2v16h-1.1l-11.9-14v14h-1.2v-16H171.7z"/>
			<path d="M203,206.1v1.1h-6.7v5.9h6.3v1.1h-6.3v7.8h-1.2v-16H203z"/>
			<path d="M213.6,206.1v1.1h-7.2v6.2h7v1.1h-7v6.4h7.4v1.1h-8.6v-16H213.6z"/>
			<path d="M216.4,206.1h5.7c5.1,0,8.6,3.2,8.6,7.8c0,5-3.5,8.1-8.5,8.1h-5.7V206.1z M222.1,220.9c4.3,0,7.2-2.7,7.2-6.8
				c0-4.3-2.9-6.9-7.4-6.9h-4.4v13.7H222.1z"/>
			<path d="M242.1,206.1v1.1h-7.2v6.2h7v1.1h-7v6.4h7.4v1.1h-8.6v-16H242.1z"/>
			<path d="M244.8,206.1h4c3.2,0,4.9,1.6,4.9,4.1c0,2.1-1.2,3.5-3.3,3.9c1.1,0.5,1.6,1,2.6,2.6l3.4,5.3H255l-3.1-4.9
				c-1.4-2.1-2.3-2.6-3.9-2.6h-1.9v7.5h-1.2V206.1z M247.9,213.4c2.7,0,4.6-0.6,4.6-3.2c0-2.3-1.6-3-3.9-3h-2.5v6.2H247.9z"/>
			<path d="M265.4,205.9l7.1,16.1h-1.3l-2.3-5.3h-7.7l-2.3,5.3h-1.3l7-16.1H265.4z M261.6,215.6h6.8l-3.4-7.8L261.6,215.6z"/>
			<path d="M283.7,206.1v1.1h-5.8V222h-1.2v-14.9h-5.8v-1.1H283.7z"/>
			<path d="M287.1,206.1v16h-1.2v-16H287.1z"/>
			<path d="M306.7,213.9c0,4.6-3.4,8.3-8.3,8.3c-4.9,0-8.2-3.7-8.2-8.1c0-4.7,3.4-8.3,8.2-8.3C303.5,205.8,306.7,209.6,306.7,213.9z
				 M291.5,214.1c0,4,3,7,6.9,7c4.7,0,7.1-3.6,7.1-7c0-3.7-2.7-7-6.9-7C294.1,207,291.5,210.3,291.5,214.1z"/>
			<path d="M310.8,206.1l11.9,14v-14h1.2v16h-1.1l-11.9-14v14h-1.2v-16H310.8z"/>
			<path d="M93.9,234.1v1.1h-6.7v5.9h6.3v1.1h-6.3v7.8H86v-16H93.9z"/>
			<path d="M112,242c0,4.6-3.4,8.3-8.3,8.3c-4.9,0-8.2-3.7-8.2-8.1c0-4.7,3.4-8.3,8.2-8.3C108.9,233.9,112,237.7,112,242z
				 M96.8,242.1c0,4,3,7,6.9,7c4.7,0,7.1-3.6,7.1-7c0-3.7-2.7-7-6.9-7C99.5,235.1,96.8,238.4,96.8,242.1z"/>
			<path d="M115.1,234.1h4c3.2,0,4.9,1.6,4.9,4.1c0,2.1-1.2,3.5-3.3,3.9c1.1,0.5,1.6,1,2.6,2.6l3.4,5.3h-1.5l-3.1-4.9
				c-1.4-2.1-2.3-2.6-3.9-2.6h-1.9v7.5h-1.2V234.1z M118.2,241.4c2.7,0,4.6-0.6,4.6-3.2c0-2.3-1.6-3-3.9-3h-2.5v6.2H118.2z"/>
			<path d="M138.8,234.1c2.7,0,4.9,1.3,4.9,4c0,1.8-1,3.1-2.8,3.6c2.6,0.3,4.2,1.8,4.2,4.1c0,2.7-2.2,4.2-5.3,4.2h-4.6v-16H138.8z
				 M136.4,241.4h1.9c2.8,0,4.2-1.2,4.2-3.1c0-2.1-1.3-3.1-4-3.1h-2.1V241.4z M139.6,249c2.4,0,4.2-0.9,4.2-3.2
				c0-2.1-1.5-3.3-4.6-3.3h-2.8v6.5H139.6z"/>
			<path d="M149.1,234.1v16h-1.2v-16H149.1z"/>
			<path d="M168.7,242c0,4.6-3.4,8.3-8.3,8.3c-4.9,0-8.2-3.7-8.2-8.1c0-4.7,3.4-8.3,8.2-8.3C165.5,233.9,168.7,237.7,168.7,242z
				 M153.4,242.1c0,4,3,7,6.9,7c4.7,0,7.1-3.6,7.1-7c0-3.7-2.7-7-6.9-7C156.1,235.1,153.4,238.4,153.4,242.1z"/>
			<path d="M172.9,234.1V249h7.8v1.1h-9.1v-16H172.9z"/>
			<path d="M197.6,242c0,4.6-3.4,8.3-8.3,8.3c-4.9,0-8.2-3.7-8.2-8.1c0-4.7,3.4-8.3,8.2-8.3C194.4,233.9,197.6,237.7,197.6,242z
				 M182.3,242.1c0,4,3,7,6.9,7c4.7,0,7.1-3.6,7.1-7c0-3.7-2.7-7-6.9-7C185,235.1,182.3,238.4,182.3,242.1z"/>
			<path d="M213.4,236.5c-1.7-1-3.6-1.5-5.4-1.5c-4,0-6.9,3-6.9,6.9c0,4.3,2.8,7.2,7.1,7.2c1.5,0,2.7-0.3,4.3-1v-4.4H209v-1.1h4.7
				v6.3c-1.7,0.8-3.3,1.3-5.5,1.3c-5.4,0-8.4-3.7-8.4-8.2c0-4.6,3.3-8.2,8.3-8.2c1.8,0,3.4,0.4,5.3,1.2V236.5z"/>
			<path d="M218.4,234.1v16h-1.2v-16H218.4z"/>
			<path d="M235,235.1v1.4c-1.6-0.9-3.4-1.5-5.3-1.5c-4.2,0-7,3.2-7,7.1c0,4,2.8,7,7,7c1.9,0,3.7-0.5,5.4-1.5v1.4
				c-1.7,0.8-3.4,1.3-5.4,1.3c-5.2,0-8.2-3.8-8.2-8.1c0-4.8,3.4-8.3,8.3-8.3C231.6,233.9,233.3,234.4,235,235.1z"/>
			<path d="M244.4,234l7.1,16.1h-1.3l-2.3-5.3h-7.7l-2.3,5.3h-1.3l7-16.1H244.4z M240.6,243.7h6.8l-3.4-7.8L240.6,243.7z"/>
			<path d="M254.8,234.1V249h7.8v1.1h-9.1v-16H254.8z"/>
			<path d="M271.4,234.1h5.7c5.1,0,8.6,3.2,8.6,7.8c0,5-3.5,8.1-8.5,8.1h-5.7V234.1z M277.2,249c4.3,0,7.2-2.7,7.2-6.8
				c0-4.3-2.9-6.9-7.4-6.9h-4.4V249H277.2z"/>
			<path d="M294,234l7.1,16.1h-1.3l-2.3-5.3h-7.7l-2.3,5.3h-1.3l7-16.1H294z M290.2,243.7h6.8l-3.4-7.8L290.2,243.7z"/>
			<path d="M312.3,234.1v1.1h-5.8v14.9h-1.2v-14.9h-5.8v-1.1H312.3z"/>
			<path d="M318.5,234l7.1,16.1h-1.3l-2.3-5.3h-7.7l-2.3,5.3h-1.3l7-16.1H318.5z M314.7,243.7h6.8l-3.4-7.8L314.7,243.7z"/>
		</g>
		<g>
			<g>
				<path d="M76.8,121H59c7.5,3.5,11.4,10.9,11.4,19c0,11.4-7.2,21.4-22.6,24.5c-11.4,2.2-16.6,4.3-16.6,9.4c0,7.8,8.8,7,25.1,9.6
					c15.8,2.6,21,10.2,21,19c0,13.1-12.8,21-31.8,21c-20.6,0-31.4-8-31.4-20c0-9.6,5.6-16.3,18.7-19c-6.1-1.8-9-5.3-9-9.8
					c0-6.2,4.8-9.9,13.3-11.8c-11.7-3.4-17.8-12.5-17.8-23.2c0-14.7,10.7-24.8,28.6-24.8h28.8V121z M45.4,217.3
					c15.4,0,24.3-5.3,24.3-14.4s-8.5-14.1-25.1-14.1c-13.9,0-23.2,4.6-23.2,14.4C21.4,212.5,29.9,217.3,45.4,217.3z M44.8,157.8
					c10.4,0,18.6-7.4,18.6-18.2c0-10.2-7.5-18.1-18.1-18.1c-10.7,0-18.9,7.4-18.9,18.4C26.4,150.6,34.4,157.8,44.8,157.8z"/>
				<path d="M131.7,79.5l0,7.2c-3-1.3-9.9-3.3-13.2-3.3c-11.5,0-17.1,7-17.1,22.4v9.1h13.8l0,6.7h-13.8v65.1h-7.7v-65.1H80.3l0-6.7
					h13.4v-9.3c0-18.9,9-29.4,23.8-29.4C121.7,76.2,128.7,78.4,131.7,79.5z"/>
			</g>
			<g>
				<path class="st10" d="M169.4,188.2c-9.6,0-17.6-1.8-26.2-5.3V77.6h7.5V125c8-6.7,14.7-11.6,24.3-11.6c19.2,0,33.7,16,33.7,35.8
					C208.7,173.2,190.5,188.2,169.4,188.2z M150.7,178c6.6,2.4,12,3.5,18.9,3.5c17,0,31.5-13,31.5-32c0-16.8-11.4-29.3-26.6-29.3
					c-7.7,0-16.1,6-23.8,13.9L150.7,178z"/>
				<path class="st10" d="M225.6,114.9h7.5v71.8h-7.5V114.9z"/>
				<path class="st10" d="M270,118.2c1.9,2,4.1,3.9,6.2,5.6c-9.3,4.7-16.9,14.1-16.9,27.1c0,18.1,12.3,30.6,28.8,30.6
					c17.1,0,28.8-13.1,28.8-30.6c0-4.3-1.9-11.7-1.9-11.7s5.6,0.4,8,0.3c1,3.6,1.5,7.3,1.5,11.3c0,23.2-17.3,37.3-36.5,37.3
					c-22.6,0-36.6-17.4-36.6-36.6C251.5,136.7,258.8,124.5,270,118.2"/>
			</g>
		</g>
		<g>
			
				<linearGradient id="SVGID_6_" gradientUnits="userSpaceOnUse" x1="279.2759" y1="21.2716" x2="279.2759" y2="43.2323" gradientTransform="matrix(1 -8.726535e-03 8.726535e-03 1 -2.7088 3.7969)">
				<stop  offset="0" style="stop-color:#8ABF47"/>
				<stop  offset="1" style="stop-color:#44AC34"/>
			</linearGradient>
			<path class="st11" d="M288.3,34.5c-1,5.7-8,10.5-15.6,9.9c-7.7-0.7-9.6-4.1-5-7.8c4.5-3.8,10.5-8.5,14.7-9.8
				C286.7,25.4,289.4,28.8,288.3,34.5z"/>
			
				<linearGradient id="SVGID_7_" gradientUnits="userSpaceOnUse" x1="324.1948" y1="105.9989" x2="324.1948" y2="65.0852" gradientTransform="matrix(1 -8.726535e-03 8.726535e-03 1 -2.7088 3.7969)">
				<stop  offset="0" style="stop-color:#044F9E"/>
				<stop  offset="1" style="stop-color:#1966B0"/>
			</linearGradient>
			<path class="st12" d="M325.7,25.6c6.9,7,9.9,13.1,3.4,14.1c-6.3,0.9-14.3-4.2-16.8-11c-2.7-6.8-1.6-13.5,0.8-14.8
				C315.5,12.7,319.1,18.4,325.7,25.6z"/>
			
				<linearGradient id="SVGID_8_" gradientUnits="userSpaceOnUse" x1="396.184" y1="126.9212" x2="396.184" y2="59.8858" gradientTransform="matrix(1 -8.726535e-03 8.726535e-03 1 -2.7088 3.7969)">
				<stop  offset="0" style="stop-color:#8ABF47"/>
				<stop  offset="1" style="stop-color:#44AC34"/>
			</linearGradient>
			<path class="st13" d="M426.6,86.6c14,6.7,7.2,24.9-15.9,33.3c-23.4,8.1-47.9-1.9-53.8-13.8c-5.9-12,1.2-21,16.1-24.4
				C388,78.6,412.3,79.6,426.6,86.6z"/>
			
				<linearGradient id="SVGID_9_" gradientUnits="userSpaceOnUse" x1="276.4336" y1="136.6895" x2="276.4336" y2="76.4967" gradientTransform="matrix(1 -8.726535e-03 8.726535e-03 1 -2.7088 3.7969)">
				<stop  offset="0" style="stop-color:#044F9E"/>
				<stop  offset="1" style="stop-color:#1966B0"/>
			</linearGradient>
			<path class="st14" d="M309,29.7c-2.4-6.8-5.8-10.9-9.1-9.3c-3.3,1.6-6.6,7.6-7.4,13.4c0,0,0,0,0,0c-0.8,10.6-7.8,16.4-23.1,14.4
				c0,0,0,0,0,0c-7.8-0.7-19.9,0.3-27.3,2.3c-7.4,1.8-3.7,8.8,9,14.4c12.9,5.4,25.9,2.1,28.2-4.5c0,0,0,0,0,0c0,0,0,0,0,0
				c5.4-11,12.3-15.3,23.3-16.8c0,0,0,0,0,0C309.1,42.9,311.5,36.4,309,29.7z"/>
			<path class="st15" d="M368.1,55.6c-12.7-6.4-26.8-10.8-33.4-9.8c-3.4,0.6-5.7,2.6-6.5,5.6c-1.7,5.4-7.6,5.8-14.2,1.4
				c-3.5-2.4-7.3-3.7-10.8-3.5c-6.8,0.6-13.9,5.5-16,12.2c-1.3,3.7,0.8,8.2,5.2,11.6c5.7,5.8,6.3,11-3.5,14.9
				c-5.7,1.9-10.2,5.3-12.1,10.2c-3.7,9.2,10.1,25.8,33.2,30c23.1,4,37.6-9,31.9-20.9c-2.9-6.3-8.5-11.3-15.1-14.9
				c-12-7.2-11.4-12.4-5.6-18.4c-0.1,0-0.1,0-0.2,0c5.9-6.1,10.3-6.5,22.8-1.6c0,0,0,0,0,0c6.3,2.5,13.8,3.5,21.2,2
				C379.6,71,380.8,61.7,368.1,55.6z M321,73.8C321,73.8,321,73.8,321,73.8C321,73.8,321,73.8,321,73.8C321,73.8,321,73.8,321,73.8z
				"/>
			
				<linearGradient id="SVGID_10_" gradientUnits="userSpaceOnUse" x1="234.9261" y1="102.5175" x2="234.9261" y2="37.4189" gradientTransform="matrix(1 -8.726535e-03 8.726535e-03 1 -2.7088 3.7969)">
				<stop  offset="0" style="stop-color:#044F9E"/>
				<stop  offset="1" style="stop-color:#1966B0"/>
			</linearGradient>
			<path class="st16" d="M262.9,93.1c-3.8,9.2-24.9,10.1-43.3-4.3c-18-14.5-22.1-29.8-13.3-30.2c9-0.7,26.5,4.6,39.6,10.2
				C258.8,74.8,266.9,84,262.9,93.1z"/>
		</g>
	</g>
	<path class="st17" d="M605,202.9c-18.6-9.7-39.3-16.4-48.9-15c-5,0.9-8.4,4-9.5,8.6c-2.5,8.3-11.1,8.9-20.9,2.2
		c-5.1-3.7-10.7-5.6-15.8-5.3c-10,0.9-20.3,8.3-23.5,18.5c-1.9,5.7,1.2,12.4,7.7,17.6c8.3,8.8,9.2,16.7-5.1,22.6
		c-8.4,2.9-14.9,8-17.7,15.4c-5.5,14,14.7,39.2,48.6,45.6c33.9,6.1,55.1-13.7,46.8-31.8c-4.2-9.5-12.4-17.2-22.1-22.7
		c-17.6-11-16.7-18.8-8.2-28c-0.1,0-0.2,0-0.3,0c8.6-9.3,15-9.9,33.4-2.4c0,0,0,0,0-0.1c9.2,3.7,20.3,5.3,31,3
		C621.9,226.3,623.6,212.2,605,202.9z M536,230.7C536.1,230.6,536.1,230.6,536,230.7C536.1,230.6,536.1,230.6,536,230.7
		C536.1,230.7,536.1,230.7,536,230.7z"/>
</g>
</svg>
